<svg xmlns="http://www.w3.org/2000/svg" viewBox="0 0 512 512">
  <defs>
    <linearGradient id="g" x1="0" x2="1" y1="0" y2="1">
      <stop offset="0%" stop-color="#22c55e"/>
      <stop offset="100%" stop-color="#16a34a"/>
    </linearGradient>
  </defs>
  <rect width="512" height="512" rx="96" fill="#0f172a"/>
  <rect x="32" y="32" width="448" height="448" rx="80" fill="url(#g)"/>
  <g fill="#052e16">
    <path d="M170 126h54l22 188c2 18 16 32 34 32h22c18 0 32-14 34-32l22-188h54l-28 205c-5 38-37 67-75 67h-40c-38 0-70-29-75-67z"/>
    <circle cx="220" cy="420" r="24"/>
    <circle cx="292" cy="420" r="24"/>
  </g>
  <g fill="#f8fafc">
    <path d="M170 126h54l22 188c2 18 16 32 34 32h22c18 0 32-14 34-32l22-188h54l-28 205c-5 38-37 67-75 67h-40c-38 0-70-29-75-67z" opacity=".13"/>
  </g>
</svg>